<?xml version="1.0" encoding="utf-8"?>
<?xml-stylesheet type="text/xsl" href="rss1.xsl"?>
<rss version="2.0" xmlns:atom="http://www.w3.org/2005/Atom" xmlns:content="http://purl.org/rss/1.0/modules/content/" xmlns:dc="http://purl.org/dc/elements/1.1/" xmlns:media="http://search.yahoo.com/mrss/">
<channel>
 <title>Getty</title>
 <link>http://www.gettyimg.com/</link>
 <atom:link href="http://www.gettyimg.com/" rel="self" type="application/rss+xml" />

 
                <item>
                <title><![CDATA[【Requests】[REQ AUD] - I Saw The TV Glow (Original Soundtrack) - QoBuz FLAC rip]]></title>
                <link><![CDATA[https://sharemania.us/threads/i-saw-the-tv-glow-original-soundtrack-qobuz-flac-rip.244305/]]></link>
                <description><![CDATA[<article>
<blockquote class="messageText SelectQuoteContainer ugc baseHtml">
Hello!<br>
<br>
I was wondering if anyone could please rip the highest quality obtainable uncompressed files from Qobuz? This album is not available in bandcamp so this is the highest quality obtainable.<br>
<br>
<a href="https://www.qobuz.com/us-en/album/i-saw-the-tv-glow-various-artists/bfcf9k5i21h1b" target="_blank" class="externalLink" rel="nofollow">https://www.qobuz.com/us-en/album/i-saw-the-tv-glow-various-artists/bfcf9k5i21h1b</a><br>
<br>
Thanks!
<div class="messageTextEndMarker">&nbsp;</div>
</blockquote>
</article>]]></description>
                <author><![CDATA[conleg]]></author>
                </item>

                
                <item>
                <title><![CDATA[【HD Live Performances】BLU-RAY - Queen - Rock Montreal &amp; Live Aid UHD BluRay 2160p TrueHD Atmos 7.1 HDR HEVC  REMUX-FraMeSToR]]></title>
                <link><![CDATA[https://sharemania.us/threads/queen-rock-montreal-live-aid-uhd-bluray-2160p-truehd-atmos-7-1-hdr-hevc-remux-framestor.244306/]]></link>
                <description><![CDATA[<article>
<blockquote class="messageText SelectQuoteContainer ugc baseHtml">
<img src="https://muzyka.sklep.pl/img/product_media/5001-6000/QUEEN-QUEEN-ROCK-MONTREAL-2BRD-4K-6136.jpg" class="bbCodeImage LbImage" alt="[​IMG]" data-url="https://muzyka.sklep.pl/img/product_media/5001-6000/QUEEN-QUEEN-ROCK-MONTREAL-2BRD-4K-6136.jpg" style=""> <br>
<b>Rock Montreal 1981</b> <i>[2023 Remaster for IMAX Cinema Screenings]</i><br>
<b>Widescreen 16:9</b><br>
<div class="ToggleTriggerAnchor bbCodeSpoilerContainer">
<button type="button" class="button bbCodeSpoilerButton ToggleTrigger Tooltip JsOnly" data-target="> .SpoilerTarget"><span>Spoiler: <span class="SpoilerTitle">Media Info</span></span></button>
<div class="SpoilerTarget bbCodeSpoilerText">General<br>
Unique ID : 326258279677650955678211733535184670173 (0xF5730F1D7A50568AF78068A62B704DDD)<br>
Complete name : QUEENR~1.MKV<br>
Format : Matroska<br>
Format version : Version 4<br>
File size : 43.3 GiB<br>
Duration : 1 h 35 min<br>
Overall bit rate mode : Variable<br>
Overall bit rate : 65.0 Mb/s<br>
Frame rate : 24.000 FPS<br>
Movie name : Queen: Rock Montreal &amp; Live Aid (2007) WS<br>
Encoded date : 2024-05-13 06:41:21 UTC<br>
Writing application : mkvmerge v84.0 ('Sleeper') 64-bit<br>
Writing library : libebml v1.4.5 + libmatroska v1.7.1<br>
IMDB : tt1421377<br>
TMDB : movie/468591<br>
<br>
Video<br>
ID : 1<br>
Format : HEVC<br>
Format/Info : High Efficiency Video Coding<br>
Format profile : Main 10@L5.1@High<br>
HDR format : SMPTE ST 2086, HDR10 compatible<br>
Codec ID : V_MPEGH/ISO/HEVC<br>
Duration : 1 h 35 min<br>
Bit rate : 53.8 Mb/s<br>
Width : 3 840 pixels<br>
Height : 2 160 pixels<br>
Display aspect ratio : 16:9<br>
Frame rate mode : Constant<br>
Frame rate : 24.000 FPS<br>
Color space : YUV<br>
Chroma subsampling : 4:2:0 (Type 2)<br>
Bit depth : 10 bits<br>
Bits/(Pixel*Frame) : 0.270<br>
Time code of first frame : 00:59:59:00<br>
Stream size : 35.8 GiB (83%)<br>
Writing library : ATEME Titan File 3.9.11 (4.9.11.0) <br>
Default : Yes<br>
Forced : No<br>
Color range : Limited<br>
Color primaries : BT.2020<br>
Transfer characteristics : PQ<br>
Matrix coefficients : BT.2020 non-constant<br>
Mastering display color primaries : Display P3<br>
Mastering display luminance : min: 0.0050 cd/m2, max: 1000 cd/m2<br>
Maximum Content Light Level : 1000 cd/m2<br>
Maximum Frame-Average Light Level : 300 cd/m2<br>
<br>
Audio #1<br>
ID : 2<br>
Format : MLP FBA 16-ch<br>
Format/Info : Meridian Lossless Packing FBA with 16-channel presentation<br>
Commercial name : Dolby TrueHD with Dolby Atmos<br>
Codec ID : A_TRUEHD<br>
Duration : 1 h 35 min<br>
Bit rate mode : Variable<br>
Bit rate : 4 061 kb/s<br>
Maximum bit rate : 5 313 kb/s<br>
Channel(s) : 8 channels<br>
Channel layout : L R C LFE Ls Rs Lb Rb<br>
Sampling rate : 48.0 kHz<br>
Frame rate : 1 200.000 FPS (40 SPF)<br>
Compression mode : Lossless<br>
Stream size : 2.71 GiB (6%)<br>
Title : TrueHD Atmos 7.1<br>
Language : English<br>
Default : Yes<br>
Forced : No<br>
Number of dynamic objects : 13<br>
Bed channel count : 1 channel<br>
Bed channel configuration : LFE<br>
mixlevel : 304 dB<br>
ltrtcmixlev : -235.5 dB<br>
ltrtsurmixlev : -313.5 dB<br>
lorocmixlev : -379.5 dB<br>
lorosurmixlev : -375.0 dB<br>
adconvtyp : HDCD<br>
<br>
Audio #2<br>
ID : 3<br>
Format : AC-3<br>
Format/Info : Audio Coding 3<br>
Commercial name : Dolby Digital<br>
Codec ID : A_AC3<br>
Duration : 1 h 35 min<br>
Bit rate mode : Constant<br>
Bit rate : 384 kb/s<br>
Channel(s) : 6 channels<br>
Channel layout : L R C LFE Ls Rs<br>
Sampling rate : 48.0 kHz<br>
Frame rate : 31.250 FPS (1536 SPF)<br>
Compression mode : Lossy<br>
Stream size : 262 MiB (1%)<br>
Title : AC-3 5.1<br>
Language : English<br>
Service kind : Complete Main<br>
Default : No<br>
Forced : No<br>
Dialog Normalization : -31 dB<br>
compr : -0.28 dB<br>
dynrng : 0.27 dB<br>
cmixlev : -3.0 dB<br>
surmixlev : -3 dB<br>
dmixmod : Lo/Ro<br>
ltrtcmixlev : -3.0 dB<br>
ltrtsurmixlev : -3.0 dB<br>
lorocmixlev : -3.0 dB<br>
lorosurmixlev : -3.0 dB<br>
dialnorm_Average : -31 dB<br>
dialnorm_Minimum : -31 dB<br>
dialnorm_Maximum : -31 dB<br>
<br>
Audio #3<br>
ID : 4<br>
Format : DTS XLL<br>
Format/Info : Digital Theater Systems<br>
Commercial name : DTS-HD Master Audio<br>
Codec ID : A_DTS<br>
Duration : 1 h 35 min<br>
Bit rate mode : Variable<br>
Bit rate : 4 579 kb/s<br>
Channel(s) : 6 channels<br>
Channel layout : C L R Ls Rs LFE<br>
Sampling rate : 48.0 kHz<br>
Frame rate : 93.750 FPS (512 SPF)<br>
Bit depth : 24 bits<br>
Compression mode : Lossless<br>
Stream size : 3.05 GiB (7%)<br>
Title : DTS-HD MA 5.1<br>
Language : English<br>
Default : No<br>
Forced : No<br>
<br>
Audio #4<br>
ID : 5<br>
Format : FLAC<br>
Format/Info : Free Lossless Audio Codec<br>
Codec ID : A_FLAC<br>
Duration : 1 h 35 min<br>
Bit rate mode : Variable<br>
Bit rate : 1 754 kb/s<br>
Channel(s) : 2 channels<br>
Channel layout : L R<br>
Sampling rate : 48.0 kHz<br>
Frame rate : 11.719 FPS (4096 SPF)<br>
Bit depth : 24 bits<br>
Compression mode : Lossless<br>
Stream size : 1.17 GiB (3%)<br>
Title : FLAC 2.0<br>
Writing library : libFLAC 1.3.3 (2019-08-04)<br>
Language : English<br>
Default : No<br>
Forced : No<br>
MD5 of the unencoded content : B168A68CA2BBEEA0EE28AC7480147A9A<br>
<br>
Audio #5<br>
ID : 6<br>
Format : AC-3<br>
Format/Info : Audio Coding 3<br>
Commercial name : Dolby Digital<br>
Codec ID : A_AC3<br>
Duration : 1 h 35 min<br>
Bit rate mode : Constant<br>
Bit rate : 192 kb/s<br>
Channel(s) : 2 channels<br>
Channel layout : L R<br>
Sampling rate : 48.0 kHz<br>
Frame rate : 31.250 FPS (1536 SPF)<br>
Compression mode : Lossy<br>
Stream size : 131 MiB (0%)<br>
Title : Commentary by Musicians Brian May and Roger Taylor<br>
Language : English<br>
Service kind : Complete Main<br>
Default : No<br>
Forced : No<br>
Dialog Normalization : -31 dB<br>
compr : -0.28 dB<br>
mixlevel : 285 dB<br>
roomtyp : 3<br>
ltrtcmixlev : -3.0 dB<br>
ltrtsurmixlev : -3.0 dB<br>
lorocmixlev : -3.0 dB<br>
lorosurmixlev : -3.0 dB<br>
dialnorm_Average : -31 dB<br>
dialnorm_Minimum : -31 dB<br>
dialnorm_Maximum : -31 dB<br>
<br>
Text #1<br>
ID : 7<br>
Format : PGS<br>
Codec ID : S_HDMV/PGS<br>
Codec ID/Info : Picture based subtitle format used on BDs/HD-DVDs<br>
Duration : 1 h 34 min<br>
Bit rate : 30.7 kb/s<br>
Frame rate : 0.282 FPS<br>
Count of elements : 1592<br>
Stream size : 20.7 MiB (0%)<br>
Title : English (Commentary)<br>
Language : English<br>
Default : No<br>
Forced : No<br>
<br>
Text #2<br>
ID : 8<br>
Format : PGS<br>
Codec ID : S_HDMV/PGS<br>
Codec ID/Info : Picture based subtitle format used on BDs/HD-DVDs<br>
Duration : 1 h 34 min<br>
Bit rate : 26.4 kb/s<br>
Frame rate : 0.242 FPS<br>
Count of elements : 1368<br>
Stream size : 17.8 MiB (0%)<br>
Title : Dutch (Commentary)<br>
Language : Dutch<br>
Default : No<br>
Forced : No<br>
<br>
Text #3<br>
ID : 9<br>
Format : PGS<br>
Codec ID : S_HDMV/PGS<br>
Codec ID/Info : Picture based subtitle format used on BDs/HD-DVDs<br>
Duration : 1 h 34 min<br>
Bit rate : 27.0 kb/s<br>
Frame rate : 0.259 FPS<br>
Count of elements : 1464<br>
Stream size : 18.2 MiB (0%)<br>
Title : French (Commentary)<br>
Language : French<br>
Default : No<br>
Forced : No<br>
<br>
Text #4<br>
ID : 10<br>
Format : PGS<br>
Codec ID : S_HDMV/PGS<br>
Codec ID/Info : Picture based subtitle format used on BDs/HD-DVDs<br>
Duration : 1 h 34 min<br>
Bit rate : 31.1 kb/s<br>
Frame rate : 0.268 FPS<br>
Count of elements : 1512<br>
Stream size : 20.9 MiB (0%)<br>
Title : German (Commentary)<br>
Language : German<br>
Default : No<br>
Forced : No<br>
<br>
Text #5<br>
ID : 11<br>
Format : PGS<br>
Codec ID : S_HDMV/PGS<br>
Codec ID/Info : Picture based subtitle format used on BDs/HD-DVDs<br>
Duration : 1 h 34 min<br>
Bit rate : 24.6 kb/s<br>
Frame rate : 0.260 FPS<br>
Count of elements : 1466<br>
Stream size : 16.6 MiB (0%)<br>
Title : Italian (Commentary)<br>
Language : Italian<br>
Default : No<br>
Forced : No<br>
<br>
Text #6<br>
ID : 12<br>
Format : PGS<br>
Codec ID : S_HDMV/PGS<br>
Codec ID/Info : Picture based subtitle format used on BDs/HD-DVDs<br>
Duration : 1 h 34 min<br>
Bit rate : 29.4 kb/s<br>
Frame rate : 0.271 FPS<br>
Count of elements : 1532<br>
Stream size : 19.8 MiB (0%)<br>
Title : Portuguese (Iberian) (Commentary)<br>
Language : Portuguese (PT)<br>
Default : No<br>
Forced : No<br>
<br>
Text #7<br>
ID : 13<br>
Format : PGS<br>
Codec ID : S_HDMV/PGS<br>
Codec ID/Info : Picture based subtitle format used on BDs/HD-DVDs<br>
Duration : 1 h 34 min<br>
Bit rate : 28.5 kb/s<br>
Frame rate : 0.270 FPS<br>
Count of elements : 1526<br>
Stream size : 19.2 MiB (0%)<br>
Title : Spanish (Castilian) (Commentary)<br>
Language : Spanish (ES)<br>
Default : No<br>
Forced : No<br>
<br>
Menu<br>
00:00:00.000 : en:Intro<br>
00:02:03.667 : en:We Will Rock You (Fast)<br>
00:05:09.792 : en:Let Me Entertain You<br>
00:08:13.250 : en<img src="styles/default/xenforo/smilies/grimace-48.png" class="mceSmilie" alt=":p" title="Stick Out Tongue    :p">lay the Game<br>
00:12:08.375 : en:Somebody to Love<br>
00:19:45.750 : en:Killer Queen<br>
00:21:46.417 : en:I’m in Love With My Car<br>
00:23:49.958 : en:Get Down Make Love<br>
00:28:42.708 : en:Save Me<br>
00:32:50.167 : en:Now I'm Here<br>
00:38:20.083 : en<img src="styles/default/xenforo/smilies/exciting-48.png" class="mceSmilie" alt=":D" title="Big Grin    :D">ragon Attack<br>
00:41:35.083 : en:Now I'm Here (Reprise)<br>
00:43:36.000 : en:Love of My Life<br>
00:47:20.833 : en:Under Pressure<br>
00:51:03.292 : en:Keep Yourself Alive<br>
00:54:35.958 : en<img src="styles/default/xenforo/smilies/exciting-48.png" class="mceSmilie" alt=":D" title="Big Grin    :D">rum and Tympani Solo<br>
00:57:37.875 : en:Guitar Solo<br>
01:03:01.542 : en:Crazy Little Thing Called Love<br>
01:07:18.417 : en:Jailhouse Rock<br>
01:10:04.708 : en:Bohemian Rhapsody<br>
01:15:35.208 : en:Tie Your Mother Down<br>
01:19:24.083 : en:Another One Bites the Dust<br>
01:23:26.958 : en:Sheer Heart Attack<br>
01:27:21.875 : en:We Will Rock You<br>
01:29:31.750 : en:We Are the Champions<br>
01:32:57.708 : en:God Save the Queen</div>
</div>
<div class="bbCodeBlock bbCodeVfcHH HiddenContent">
<div class="attribution type">Hidden Content:</div>
<blockquote>You must either reply or click 'Like' to see the hidden information contained here.</blockquote>
</div><b>Full Frame 4:3</b><br>
<div class="ToggleTriggerAnchor bbCodeSpoilerContainer">
<button type="button" class="button bbCodeSpoilerButton ToggleTrigger Tooltip JsOnly" data-target="> .SpoilerTarget"><span>Spoiler: <span class="SpoilerTitle">Media Info</span></span></button>
<div class="SpoilerTarget bbCodeSpoilerText">General<br>
ID : 0 (0x0)<br>
Complete name : 00000.m2ts<br>
Format : BDAV<br>
Format/Info : Blu-ray Video<br>
File size : 45.3 GiB<br>
Duration : 1 h 35 min<br>
Overall bit rate mode : Variable<br>
Overall bit rate : 68.0 Mb/s<br>
Maximum Overall bit rate : 109 Mb/s<br>
Frame rate : 24.000 FPS<br>
<br>
Video<br>
ID : 4113 (0x1011)<br>
Menu ID : 1 (0x1)<br>
Format : HEVC<br>
Format/Info : High Efficiency Video Coding<br>
Format profile : Main 10@L5.1@High<br>
HDR format : SMPTE ST 2086, HDR10 compatible<br>
Codec ID : 36<br>
Duration : 1 h 35 min<br>
Width : 3 840 pixels<br>
Height : 2 160 pixels<br>
Display aspect ratio : 16:9<br>
Frame rate : 24.000 FPS<br>
Color space : YUV<br>
Chroma subsampling : 4:2:0 (Type 2)<br>
Bit depth : 10 bits<br>
Time code of first frame : 00:59:59:00<br>
Writing library : ATEME Titan File 3.9.11 (4.9.11.0) <br>
Color range : Limited<br>
Color primaries : BT.2020<br>
Transfer characteristics : PQ<br>
Matrix coefficients : BT.2020 non-constant<br>
Mastering display color primaries : Display P3<br>
Mastering display luminance : min: 0.0050 cd/m2, max: 1000 cd/m2<br>
Maximum Content Light Level : 1000 cd/m2<br>
Maximum Frame-Average Light Level : 300 cd/m2<br>
<br>
Audio #1<br>
ID : 4352 (0x1100)<br>
Menu ID : 1 (0x1)<br>
Format : PCM<br>
Format settings : Big / Signed<br>
Muxing mode : Blu-ray<br>
Codec ID : 128<br>
Duration : 1 h 35 min<br>
Bit rate mode : Constant<br>
Bit rate : 2 304 kb/s<br>
Channel(s) : 2 channels<br>
Channel layout : L R<br>
Sampling rate : 48.0 kHz<br>
Bit depth : 24 bits<br>
Stream size : 1.54 GiB (3%)<br>
<br>
Audio #2<br>
ID : 4353 (0x1101)<br>
Menu ID : 1 (0x1)<br>
Format : DTS XLL<br>
Format/Info : Digital Theater Systems<br>
Commercial name : DTS-HD Master Audio<br>
Muxing mode : Stream extension<br>
Codec ID : 134<br>
Duration : 1 h 35 min<br>
Bit rate mode : Variable<br>
Channel(s) : 6 channels<br>
Channel layout : C L R Ls Rs LFE<br>
Sampling rate : 48.0 kHz<br>
Frame rate : 93.750 FPS (512 SPF)<br>
Bit depth : 24 bits<br>
Compression mode : Lossless<br>
<br>
Audio #3<br>
ID : 4354 (0x1102)<br>
Menu ID : 1 (0x1)<br>
Format : MLP FBA AC-3 16-ch<br>
Format/Info : Meridian Lossless Packing FBA with 16-channel presentation<br>
Commercial name : Dolby TrueHD with Dolby Atmos<br>
Muxing mode : Stream extension<br>
Codec ID : 131<br>
Duration : 1 h 35 min<br>
Bit rate mode : Variable<br>
Bit rate : 384 kb/s<br>
Maximum bit rate : 5 313 kb/s<br>
Channel(s) : 8 channels<br>
Channel layout : L R C LFE Ls Rs Lb Rb<br>
Sampling rate : 48.0 kHz<br>
Frame rate : 31.250 FPS (1536 SPF)<br>
Compression mode : Lossless<br>
Stream size : 262 MiB (1%)<br>
Service kind : Complete Main<br>
Number of dynamic objects : 13<br>
Bed channel count : 1 channel<br>
Bed channel configuration : LFE<br>
Dialog Normalization : -31 dB<br>
compr : -0.28 dB<br>
dynrng : 0.27 dB<br>
cmixlev : -3.0 dB<br>
surmixlev : -3 dB<br>
dmixmod : Lo/Ro<br>
ltrtcmixlev : -3.0 dB<br>
ltrtsurmixlev : -3.0 dB<br>
lorocmixlev : -3.0 dB<br>
lorosurmixlev : -3.0 dB<br>
dialnorm_Average : -31 dB<br>
dialnorm_Minimum : -31 dB<br>
dialnorm_Maximum : -31 dB<br>
<br>
Audio #4<br>
ID : 4355 (0x1103)<br>
Menu ID : 1 (0x1)<br>
Format : AC-3<br>
Format/Info : Audio Coding 3<br>
Commercial name : Dolby Digital<br>
Codec ID : 129<br>
Duration : 1 h 35 min<br>
Bit rate mode : Constant<br>
Bit rate : 192 kb/s<br>
Channel(s) : 2 channels<br>
Channel layout : L R<br>
Sampling rate : 48.0 kHz<br>
Frame rate : 31.250 FPS (1536 SPF)<br>
Compression mode : Lossy<br>
Stream size : 131 MiB (0%)<br>
Service kind : Complete Main<br>
Dialog Normalization : -31 dB<br>
compr : -0.28 dB<br>
mixlevel : 285 dB<br>
roomtyp : 3<br>
ltrtcmixlev : -3.0 dB<br>
ltrtsurmixlev : -3.0 dB<br>
lorocmixlev : -3.0 dB<br>
lorosurmixlev : -3.0 dB<br>
dialnorm_Average : -31 dB<br>
dialnorm_Minimum : -31 dB<br>
dialnorm_Maximum : -31 dB<br>
<br>
Text #1<br>
ID : 4768 (0x12A0)<br>
Menu ID : 1 (0x1)<br>
Format : PGS<br>
Codec ID : 144<br>
Delay relative to video : 6 s 958 ms<br>
<br>
Text #2<br>
ID : 4769 (0x12A1)<br>
Menu ID : 1 (0x1)<br>
Format : PGS<br>
Codec ID : 144<br>
Delay relative to video : 6 s 958 ms<br>
<br>
Text #3<br>
ID : 4770 (0x12A2)<br>
Menu ID : 1 (0x1)<br>
Format : PGS<br>
Codec ID : 144<br>
Delay relative to video : 6 s 916 ms<br>
<br>
Text #4<br>
ID : 4771 (0x12A3)<br>
Menu ID : 1 (0x1)<br>
Format : PGS<br>
Codec ID : 144<br>
Delay relative to video : 6 s 833 ms<br>
<br>
Text #5<br>
ID : 4772 (0x12A4)<br>
Menu ID : 1 (0x1)<br>
Format : PGS<br>
Codec ID : 144<br>
Delay relative to video : 6 s 875 ms<br>
<br>
Text #6<br>
ID : 4773 (0x12A5)<br>
Menu ID : 1 (0x1)<br>
Format : PGS<br>
Codec ID : 144<br>
Delay relative to video : 6 s 916 ms<br>
<br>
Text #7<br>
ID : 4774 (0x12A6)<br>
Menu ID : 1 (0x1)<br>
Format : PGS<br>
Codec ID : 144<br>
Delay relative to video : 6 s 958 ms</div>
</div>
<div class="bbCodeBlock bbCodeVfcHH HiddenContent">
<div class="attribution type">Hidden Content:</div>
<blockquote>You must either reply or click 'Like' to see the hidden information contained here.</blockquote>
</div><b>Live Aid</b> <i>[2024 Version upscaled to fullhd with surround audio]</i><br>
<div class="ToggleTriggerAnchor bbCodeSpoilerContainer">
<button type="button" class="button bbCodeSpoilerButton ToggleTrigger Tooltip JsOnly" data-target="> .SpoilerTarget"><span>Spoiler: <span class="SpoilerTitle">Media Info</span></span></button>
<div class="SpoilerTarget bbCodeSpoilerText">General<br>
ID : 0 (0x0)<br>
Complete name : 00001.m2ts<br>
Format : BDAV<br>
Format/Info : Blu-ray Video<br>
File size : 5.55 GiB<br>
Duration : 24 min 43 s<br>
Overall bit rate mode : Variable<br>
Overall bit rate : 32.1 Mb/s<br>
Maximum Overall bit rate : 109 Mb/s<br>
Frame rate : 59.940 FPS<br>
<br>
Video<br>
ID : 4113 (0x1011)<br>
Menu ID : 1 (0x1)<br>
Format : HEVC<br>
Format/Info : High Efficiency Video Coding<br>
Format profile : Main 10@L5.1@High<br>
Codec ID : 36<br>
Duration : 24 min 43 s<br>
Width : 1 920 pixels<br>
Height : 1 080 pixels<br>
Display aspect ratio : 16:9<br>
Frame rate : 59.940 (60000/1001) FPS<br>
Color space : YUV<br>
Chroma subsampling : 4:2:0 (Type 2)<br>
Bit depth : 10 bits<br>
Time code of first frame : 00:59:57:00<br>
Writing library : ATEME Titan File 3.9.11 (4.9.11.0) <br>
Color range : Limited<br>
Color primaries : BT.709<br>
Transfer characteristics : BT.709<br>
Matrix coefficients : BT.709<br>
<br>
Audio #1<br>
ID : 4352 (0x1100)<br>
Menu ID : 1 (0x1)<br>
Format : PCM<br>
Format settings : Big / Signed<br>
Muxing mode : Blu-ray<br>
Codec ID : 128<br>
Duration : 24 min 43 s<br>
Bit rate mode : Constant<br>
Bit rate : 2 304 kb/s<br>
Channel(s) : 2 channels<br>
Channel layout : L R<br>
Sampling rate : 48.0 kHz<br>
Bit depth : 24 bits<br>
Stream size : 407 MiB (7%)<br>
<br>
Audio #2<br>
ID : 4353 (0x1101)<br>
Menu ID : 1 (0x1)<br>
Format : DTS XLL<br>
Format/Info : Digital Theater Systems<br>
Commercial name : DTS-HD Master Audio<br>
Muxing mode : Stream extension<br>
Codec ID : 134<br>
Duration : 24 min 43 s<br>
Bit rate mode : Variable<br>
Channel(s) : 6 channels<br>
Channel layout : C L R Ls Rs LFE<br>
Sampling rate : 48.0 kHz<br>
Frame rate : 93.750 FPS (512 SPF)<br>
Bit depth : 24 bits<br>
Compression mode : Lossless<br>
<br>
Audio #3<br>
ID : 4354 (0x1102)<br>
Menu ID : 1 (0x1)<br>
Format : MLP FBA AC-3 16-ch<br>
Format/Info : Meridian Lossless Packing FBA with 16-channel presentation<br>
Commercial name : Dolby TrueHD with Dolby Atmos<br>
Muxing mode : Stream extension<br>
Codec ID : 131<br>
Duration : 24 min 43 s<br>
Bit rate mode : Variable<br>
Bit rate : 384 kb/s<br>
Maximum bit rate : 7 944 kb/s<br>
Channel(s) : 8 channels<br>
Channel layout : L R C LFE Ls Rs Lb Rb<br>
Sampling rate : 48.0 kHz<br>
Frame rate : 31.250 FPS (1536 SPF)<br>
Compression mode : Lossless<br>
Stream size : 67.9 MiB (1%)<br>
Service kind : Complete Main<br>
Number of dynamic objects : 13<br>
Bed channel count : 1 channel<br>
Bed channel configuration : LFE<br>
Dialog Normalization : -31 dB<br>
compr : -0.28 dB<br>
cmixlev : -3.0 dB<br>
surmixlev : -3 dB<br>
dmixmod : Lo/Ro<br>
ltrtcmixlev : -3.0 dB<br>
ltrtsurmixlev : -3.0 dB<br>
lorocmixlev : -3.0 dB<br>
lorosurmixlev : -3.0 dB<br>
dialnorm_Average : -31 dB<br>
dialnorm_Minimum : -31 dB<br>
dialnorm_Maximum : -31 dB</div>
</div>
<div class="bbCodeBlock bbCodeVfcHH HiddenContent">
<div class="attribution type">Hidden Content:</div>
<blockquote>You must either reply or click 'Like' to see the hidden information contained here.</blockquote>
</div>
<div class="messageTextEndMarker">&nbsp;</div>
</blockquote>
</article>]]></description>
                <author><![CDATA[szymek04sawicki]]></author>
                </item>

                </channel></rss>